<?xml version="1.0" encoding="UTF-8" standalone="no"?>
<svg width="800" height="200" xmlns="http://www.w3.org/2000/svg">
  <!-- Background gradient -->
  <defs>
    <linearGradient id="bg-gradient" x1="0%" y1="0%" x2="100%" y2="0%">
      <stop offset="0%" style="stop-color:#3b82f6;stop-opacity:1" />
      <stop offset="100%" style="stop-color:#6366f1;stop-opacity:1" />
    </linearGradient>
  </defs>

  <!-- Background rectangle -->
  <rect width="800" height="200" rx="10" ry="10" fill="url(#bg-gradient)" />

  <!-- Decorative elements -->
  <circle cx="100" cy="50" r="20" fill="#ffffff" fill-opacity="0.1" />
  <circle cx="700" cy="150" r="30" fill="#ffffff" fill-opacity="0.1" />
  <circle cx="150" cy="170" r="15" fill="#ffffff" fill-opacity="0.1" />
  <circle cx="650" cy="40" r="25" fill="#ffffff" fill-opacity="0.1" />

  <!-- Main text -->
  <text x="400" y="90" font-family="Arial, sans-serif" font-size="36" font-weight="bold" fill="#ffffff" text-anchor="middle">Project Initialization System</text>

  <!-- Subtitle -->
  <text x="400" y="130" font-family="Arial, sans-serif" font-size="18" fill="#ffffff" text-anchor="middle">Create enterprise-ready Python & Terraform projects</text>

  <!-- Icons -->
  <!-- Python -->
  <g transform="translate(200, 50) scale(0.15)">
    <path d="M116.948 97.807c-6.863-.187-13.303.436-19.066 1.562-16.9 3.294-19.97 10.17-19.97 22.858v16.76h39.94v5.05h-39.94-14.98c-12.765 0-23.94 7.675-27.44 22.29-4.01 16.718-4.186 27.152 0 44.62 3.108 12.977 10.537 22.286 23.3 22.286h15.063v-20.086c0-14.511 12.565-27.31 27.44-27.31h39.88c12.2 0 22-10.045 22-22.29V122.17c0-11.88-10.01-20.781-22-22.803-7.562-1.28-15.42-1.866-22.293-1.56zm-21.613 13.51c4.12 0 7.496 3.422 7.496 7.635a7.571 7.571 0 0 1-7.496 7.635c-4.14 0-7.493-3.422-7.493-7.635a7.57 7.57 0 0 1 7.493-7.635z" fill="#3776ab"/>
    <path d="M162.424 144.047v19.5c0 15.125-12.805 27.852-27.44 27.852h-39.88c-12.012 0-22 10.309-22 22.342v41.892c0 11.88 10.33 18.877 22 22.283 13.953 4.073 27.33 4.81 39.88 0 8.335-3.199 22-9.697 22-22.285v-16.76h-39.88v-5.05h39.88 22c12.763 0 17.52-8.9 22-22.285 4.62-13.733 4.42-26.945 0-44.625-3.17-12.72-9.22-22.284-22-22.284h-16.56zm-22.347 106.674c4.138 0 7.493 3.422 7.493 7.638a7.57 7.57 0 0 1-7.493 7.632c-4.12 0-7.496-3.42-7.496-7.632a7.571 7.571 0 0 1 7.496-7.638z" fill="#3776ab"/>
  </g>

  <!-- Terraform -->
  <g transform="translate(560, 50) scale(0.18)">
    <path d="M88.527 0L-.11 50.87v101.74l88.637 50.87 88.638-50.87V50.87L88.527 0zm7.42 185.267L28.96 148.863V76.056l66.987 36.403v72.808zm8.368-86.114L37.33 62.75l66.986-36.403 66.987 36.403-66.987 36.403zm74.355 49.712l-66.987 36.403V112.46l66.987-36.403v72.808z" fill="#5c4ee5"/>
  </g>

  <!-- Small decorative lines -->
  <line x1="250" y1="160" x2="550" y2="160" stroke="#ffffff" stroke-width="2" stroke-opacity="0.3" />
  <line x1="300" y1="170" x2="500" y2="170" stroke="#ffffff" stroke-width="2" stroke-opacity="0.3" />
</svg>
